<svg width="76" height="75" viewBox="0 0 76 75" fill="none" xmlns="http://www.w3.org/2000/svg">
<path fill-rule="evenodd" clip-rule="evenodd" d="M21.7127 0H54.093C61.5054 0 64.1933 0.77073 66.9025 2.2185C69.6117 3.66753 71.7396 5.79234 73.1886 8.49927C74.6375 11.2062 75.4089 13.8919 75.4089 21.2981V53.6513C75.4089 61.0576 74.6375 63.742 73.1886 66.4502C71.7396 69.1571 69.6117 71.2819 66.9025 72.7309C64.1933 74.1787 61.5054 74.9494 54.093 74.9494H21.7127C14.3002 74.9494 11.6123 74.1787 8.90311 72.7309C6.19392 71.2819 4.06732 69.1571 2.61834 66.4502C1.1681 63.742 0.396729 61.0576 0.396729 53.6513V21.2981C0.396729 13.8919 1.1681 11.2062 2.61834 8.49927C4.06732 5.79234 6.19392 3.66753 8.90311 2.2185C11.6123 0.77073 14.3002 0 21.7127 0Z" fill="url(#paint0_linear_11103_9)"/>
<defs>
<linearGradient id="paint0_linear_11103_9" x1="-1.55923" y1="-2.70122" x2="75.3458" y2="72.7398" gradientUnits="userSpaceOnUse">
<stop stop-color="#D140F8"/>
<stop offset="0.365081" stop-color="#788CE9"/>
<stop offset="0.683665" stop-color="#37C2DE"/>
<stop offset="1" stop-color="#1ECCAE"/>
</linearGradient>
</defs>
</svg>
